<svg
	viewBox="0 0 1078.1289 1429.7852"
	version="1.1"
	id="svg22"
	xmlns="http://www.w3.org/2000/svg"
>
	<defs id="defs26" />
	<padlock
		id="namedview24"
		pagecolor="#ffffff"
		bordercolor="#666666"
		borderopacity="1.0"
		showgrid="false"
		fit-margin-top="10"
		fit-margin-left="10"
		fit-margin-right="10"
		fit-margin-bottom="10"
		lock-margins="true"
	></padlock>
	<path
		fill="#807c0f"
		fill-rule="evenodd"
		fill-opacity="1"
		d="m 122.07422,561.62107 h 833.98436 c 61.64062,0 112.07032,50.4375 112.07032,112.0782 V 1307.711 c 0,61.6406 -50.4297,112.0742 -112.07032,112.0742 H 122.07422 C 60.43359,1419.7852 10,1369.3516 10,1307.711 V 673.69927 c 0,-61.6407 50.43359,-112.0782 112.07422,-112.0782 z m 485.34376,422.1758 v 142.51173 c 0,37.5899 -30.7578,68.3438 -68.34767,68.3438 h -0.008 c -37.59375,0 -68.34375,-30.7539 -68.34375,-68.3438 V 983.80467 c -25.59766,-20.2148 -42.03125,-51.5234 -42.03125,-86.664 0,-60.9493 49.42187,-110.3711 110.375,-110.3711 60.95708,0 110.37498,49.4218 110.37498,110.3711 0,35.1406 -16.4375,66.4414 -42.0195,86.6562"
		id="path6"
	/>
	<path
		fill="#807c0f"
		fill-rule="evenodd"
		fill-opacity="1"
		d="m 539.0625,10 c 221.96488,0 403.56638,181.58984 403.56638,403.55859 v 286.41018 c 0,28.2305 -2.9492,55.8008 -8.5312,82.4414 h -155.2813 c 8.961,-25.8789 13.8516,-53.6211 13.8516,-82.4414 V 413.55859 c 0,-139.48828 -114.1211,-253.59765 -253.60548,-253.59765 -139.49219,0 -253.60547,114.10937 -253.60547,253.59765 v 286.41018 c 0,28.8203 4.88281,56.5625 13.84766,82.4414 H 144.02734 c -5.57812,-26.6406 -8.53125,-54.2109 -8.53125,-82.4414 V 413.55859 C 135.49609,191.58984 317.09765,10 539.0625,10"
		id="path8"
	/>
</svg>
