<svg
	viewBox="0 0 1078.1289 1429.7852"
	version="1.1"
	id="svg22"
	xmlns="http://www.w3.org/2000/svg"
	class="fill-current"
	preserveAspectRatio="none"
>
	<defs id="defs26" />
	<padlock
		id="namedview24"
		pagecolor="#ffffff"
		bordercolor="#666666"
		borderopacity="1.0"
		showgrid="false"
		fit-margin-top="10"
		fit-margin-left="10"
		fit-margin-right="10"
		fit-margin-bottom="10"
		lock-margins="true"
	></padlock>
	<path
		fill-rule="evenodd"
		fill-opacity="1"
		d="m 122.0703,561.62107 h 833.9765 c 61.6523,0 112.0821,50.4375 112.0821,112.0782 V 1307.711 c 0,61.6406 -50.4298,112.0742 -112.0821,112.0742 H 122.0703 C 60.4296,1419.7852 10,1369.3516 10,1307.711 V 673.69927 c 0,-61.6407 50.4296,-112.0782 112.0703,-112.0782 z m 485.3398,422.1758 v 142.51173 c 0,37.5899 -30.75,68.3438 -68.3398,68.3438 h -0.012 c -37.5898,0 -68.3515,-30.7539 -68.3515,-68.3438 V 983.80467 c -25.5899,-20.2148 -42.0274,-51.5234 -42.0274,-86.664 0,-60.9493 49.418,-110.3711 110.3789,-110.3711 60.9493,0 110.3711,49.4218 110.3711,110.3711 0,35.1406 -16.4296,66.4414 -42.0195,86.6562"
		id="path2"
	/>
	<path
		fill-rule="evenodd"
		fill-opacity="1"
		d="m 539.0585,10 c 221.961,0 403.5586,181.58984 403.5586,403.55859 v 286.41018 c 0,28.2305 -2.9492,55.8008 -8.5273,82.4414 H 778.8085 c 8.9688,-25.8789 13.8516,-53.6211 13.8516,-82.4414 V 413.55859 c 0,-139.48828 -114.1133,-253.59765 -253.6016,-253.59765 -139.4882,0 -253.6093,114.10937 -253.6093,253.59765 H 135.4882 C 135.4882,191.58984 317.0898,10 539.0585,10"
		id="path4"
	/>
</svg>